<?xml version="1.0" encoding="UTF-8" standalone="no"?>
<!DOCTYPE svg PUBLIC "-//W3C//DTD SVG 1.1//EN"
 "http://www.w3.org/Graphics/SVG/1.1/DTD/svg11.dtd">
<!-- Generated by graphviz version 5.0.0 (20220707.1540)
 -->
<!-- Title: dependencies Pages: 1 -->
<svg width="1250pt" height="174pt"
 viewBox="0.00 0.00 1250.00 173.80" xmlns="http://www.w3.org/2000/svg" xmlns:xlink="http://www.w3.org/1999/xlink">
<g id="graph0" class="graph" transform="scale(1 1) rotate(0) translate(4 169.8)">
<title>dependencies</title>
<polygon fill="white" stroke="transparent" points="-4,4 -4,-169.8 1246,-169.8 1246,4 -4,4"/>
<text text-anchor="middle" x="621" y="-8.2" font-family="sans-serif" font-size="14.00">dependencies</text>
<g id="clust1" class="cluster">
<title>cluster_DashboardModule</title>
<polygon fill="none" stroke="black" stroke-dasharray="1,5" points="8,-32.8 8,-157.8 1234,-157.8 1234,-32.8 8,-32.8"/>
</g>
<g id="clust8" class="cluster">
<title>cluster_DashboardModule_imports</title>
<polygon fill="none" stroke="black" points="875,-40.8 875,-92.8 1226,-92.8 1226,-40.8 875,-40.8"/>
</g>
<g id="clust2" class="cluster">
<title>cluster_DashboardModule_declarations</title>
<polygon fill="none" stroke="black" points="16,-40.8 16,-92.8 867,-92.8 867,-40.8 16,-40.8"/>
</g>
<!-- DashboardComponent -->
<g id="node1" class="node">
<title>DashboardComponent</title>
<polygon fill="#ffffb3" stroke="black" points="858.98,-84.8 717.02,-84.8 717.02,-48.8 858.98,-48.8 858.98,-84.8"/>
<text text-anchor="middle" x="788" y="-62.6" font-family="Times,serif" font-size="14.00">DashboardComponent</text>
</g>
<!-- DashboardModule -->
<g id="node6" class="node">
<title>DashboardModule</title>
<polygon fill="#8dd3c7" stroke="black" points="685.2,-149.8 682.2,-153.8 661.2,-153.8 658.2,-149.8 564.8,-149.8 564.8,-113.8 685.2,-113.8 685.2,-149.8"/>
<text text-anchor="middle" x="625" y="-127.6" font-family="Times,serif" font-size="14.00">DashboardModule</text>
</g>
<!-- DashboardComponent&#45;&gt;DashboardModule -->
<g id="edge1" class="edge">
<title>DashboardComponent&#45;&gt;DashboardModule</title>
<path fill="none" stroke="black" d="M788,-84.83C788,-101.2 788,-122.8 788,-122.8 788,-122.8 695.23,-122.8 695.23,-122.8"/>
<polygon fill="black" stroke="black" points="695.23,-119.3 685.23,-122.8 695.23,-126.3 695.23,-119.3"/>
</g>
<!-- NotificationComponent -->
<g id="node2" class="node">
<title>NotificationComponent</title>
<polygon fill="#ffffb3" stroke="black" points="699.48,-84.8 550.52,-84.8 550.52,-48.8 699.48,-48.8 699.48,-84.8"/>
<text text-anchor="middle" x="625" y="-62.6" font-family="Times,serif" font-size="14.00">NotificationComponent</text>
</g>
<!-- NotificationComponent&#45;&gt;DashboardModule -->
<g id="edge2" class="edge">
<title>NotificationComponent&#45;&gt;DashboardModule</title>
<path fill="none" stroke="black" d="M625,-84.91C625,-84.91 625,-103.79 625,-103.79"/>
<polygon fill="black" stroke="black" points="621.5,-103.79 625,-113.79 628.5,-103.79 621.5,-103.79"/>
</g>
<!-- PageLoaderComponent -->
<g id="node3" class="node">
<title>PageLoaderComponent</title>
<polygon fill="#ffffb3" stroke="black" points="532.19,-84.8 383.81,-84.8 383.81,-48.8 532.19,-48.8 532.19,-84.8"/>
<text text-anchor="middle" x="458" y="-62.6" font-family="Times,serif" font-size="14.00">PageLoaderComponent</text>
</g>
<!-- PageLoaderComponent&#45;&gt;DashboardModule -->
<g id="edge3" class="edge">
<title>PageLoaderComponent&#45;&gt;DashboardModule</title>
<path fill="none" stroke="black" d="M458,-84.83C458,-101.2 458,-122.8 458,-122.8 458,-122.8 554.71,-122.8 554.71,-122.8"/>
<polygon fill="black" stroke="black" points="554.71,-126.3 564.71,-122.8 554.71,-119.3 554.71,-126.3"/>
</g>
<!-- ViewDashboardComponent -->
<g id="node4" class="node">
<title>ViewDashboardComponent</title>
<polygon fill="#ffffb3" stroke="black" points="366.3,-84.8 193.7,-84.8 193.7,-48.8 366.3,-48.8 366.3,-84.8"/>
<text text-anchor="middle" x="280" y="-62.6" font-family="Times,serif" font-size="14.00">ViewDashboardComponent</text>
</g>
<!-- ViewDashboardComponent&#45;&gt;DashboardModule -->
<g id="edge4" class="edge">
<title>ViewDashboardComponent&#45;&gt;DashboardModule</title>
<path fill="none" stroke="black" d="M280,-84.91C280,-104.14 280,-131.8 280,-131.8 280,-131.8 554.51,-131.8 554.51,-131.8"/>
<polygon fill="black" stroke="black" points="554.51,-135.3 564.51,-131.8 554.51,-128.3 554.51,-135.3"/>
</g>
<!-- ViewLoaderComponent -->
<g id="node5" class="node">
<title>ViewLoaderComponent</title>
<polygon fill="#ffffb3" stroke="black" points="175.8,-84.8 24.2,-84.8 24.2,-48.8 175.8,-48.8 175.8,-84.8"/>
<text text-anchor="middle" x="100" y="-62.6" font-family="Times,serif" font-size="14.00">ViewLoaderComponent</text>
</g>
<!-- ViewLoaderComponent&#45;&gt;DashboardModule -->
<g id="edge5" class="edge">
<title>ViewLoaderComponent&#45;&gt;DashboardModule</title>
<path fill="none" stroke="black" d="M100,-85.09C100,-107.01 100,-140.8 100,-140.8 100,-140.8 554.78,-140.8 554.78,-140.8"/>
<polygon fill="black" stroke="black" points="554.78,-144.3 564.78,-140.8 554.78,-137.3 554.78,-144.3"/>
</g>
<!-- DashboardRoutingModule -->
<g id="node7" class="node">
<title>DashboardRoutingModule</title>
<polygon fill="#8dd3c7" stroke="black" points="1217.82,-84.8 1214.82,-88.8 1193.82,-88.8 1190.82,-84.8 1052.18,-84.8 1052.18,-48.8 1217.82,-48.8 1217.82,-84.8"/>
<text text-anchor="middle" x="1135" y="-62.6" font-family="Times,serif" font-size="14.00">DashboardRoutingModule</text>
</g>
<!-- DashboardRoutingModule&#45;&gt;DashboardModule -->
<g id="edge6" class="edge">
<title>DashboardRoutingModule&#45;&gt;DashboardModule</title>
<path fill="none" stroke="black" d="M1135,-85.09C1135,-107.01 1135,-140.8 1135,-140.8 1135,-140.8 695.25,-140.8 695.25,-140.8"/>
<polygon fill="black" stroke="black" points="695.25,-137.3 685.25,-140.8 695.25,-144.3 695.25,-137.3"/>
</g>
<!-- PluginProxyComponent -->
<g id="node8" class="node">
<title>PluginProxyComponent</title>
<polygon fill="#8dd3c7" stroke="black" points="1034.85,-84.8 1031.85,-88.8 1010.85,-88.8 1007.85,-84.8 883.15,-84.8 883.15,-48.8 1034.85,-48.8 1034.85,-84.8"/>
<text text-anchor="middle" x="959" y="-62.6" font-family="Times,serif" font-size="14.00">PluginProxyComponent</text>
</g>
<!-- PluginProxyComponent&#45;&gt;DashboardModule -->
<g id="edge7" class="edge">
<title>PluginProxyComponent&#45;&gt;DashboardModule</title>
<path fill="none" stroke="black" d="M959,-84.91C959,-104.14 959,-131.8 959,-131.8 959,-131.8 695.48,-131.8 695.48,-131.8"/>
<polygon fill="black" stroke="black" points="695.48,-128.3 685.48,-131.8 695.48,-135.3 695.48,-128.3"/>
</g>
</g>
</svg>
